<svg xmlns="http://www.w3.org/2000/svg" xmlns:xlink="http://www.w3.org/1999/xlink" width="966.514" height="470.813" viewBox="0 0 966.514 470.813"><defs><style>.a{fill:#08cc96;opacity:0.12;}.b{filter:url(#a);}</style><filter id="a" x="0" y="0" width="966.514" height="470.813" filterUnits="userSpaceOnUse"><feOffset dy="3" input="SourceAlpha"/><feGaussianBlur stdDeviation="3" result="b"/><feFlood flood-color="#fff" flood-opacity="0.302"/><feComposite operator="in" in2="b"/><feComposite in="SourceGraphic"/></filter></defs><g class="b" transform="matrix(1, 0, 0, 1, 0, 0)"><path class="a" d="M28.125,36.75h24.5v6.125h-24.5Zm49,0h24.5v6.125h-24.5ZM123.063,9.188h36.846V42.875H123.063Zm3.063,6.125v24.5h30.721v-24.5Zm45.938-6.125h36.846V42.875H172.063Zm3.063,6.125v24.5h30.721v-24.5Zm49,21.438h24.5v6.125h-24.5ZM270.063,9.188h36.846V42.875H270.063Zm3.063,6.125v24.5h30.721v-24.5Zm49,21.438h24.5v6.125h-24.5Zm49,0h24.5v6.125h-24.5ZM414,16.341h20.576V49H414Zm.981.981v30.7H433.6v-30.7ZM444.625,36.75h24.5v6.125h-24.5Zm49,0h24.5v6.125h-24.5ZM539.563,9.188h36.846V42.875H539.563Zm3.063,6.125v24.5h30.721v-24.5Zm45.938-6.125h36.846V42.875H588.563Zm3.063,6.125v24.5h30.721v-24.5Zm49,21.438h24.5v6.125h-24.5Zm49,0h24.5v6.125h-24.5Zm49,0h24.5v6.125h-24.5Zm49,0h24.5v6.125h-24.5ZM830.5,16.341h20.576V49H830.5Zm.981.981v30.7H850.1v-30.7ZM861.125,36.75h24.5v6.125h-24.5Zm49,0h24.5v6.125h-24.5ZM25.063,68.188H61.908v33.688H25.063Zm3.063,6.125v24.5H58.846v-24.5Zm45.938-6.125h36.846v33.688H74.063Zm3.063,6.125v24.5h30.721v-24.5Zm49,21.438h24.5v6.125h-24.5Zm45.938-27.562h36.846v33.688H172.063Zm3.063,6.125v24.5h30.721v-24.5Zm49,21.438h24.5v6.125h-24.5Zm49,0h24.5v6.125h-24.5ZM316,75.341h20.576V108H316Zm.981.981v30.7H335.6v-30.7ZM346.625,95.75h24.5v6.125h-24.5Zm49,0h24.5v6.125h-24.5Zm45.938-27.562h36.846v33.688H441.563Zm3.063,6.125v24.5h30.721v-24.5Zm49,21.438h24.5v6.125h-24.5Zm49,0h24.5v6.125h-24.5Zm49,0h24.5v6.125h-24.5Zm49,0h24.5v6.125h-24.5Zm49,0h24.5v6.125h-24.5ZM732.5,75.341h20.576V108H732.5Zm.981.981v30.7H752.1v-30.7ZM763.125,95.75h24.5v6.125h-24.5Zm45.938-27.562h36.846v33.688H809.063Zm3.063,6.125v24.5h30.721v-24.5Zm45.938-6.125h36.846v33.688H858.063Zm3.063,6.125v24.5h30.721v-24.5Zm45.938-6.125h36.846v33.688H907.063Zm3.063,6.125v24.5h30.721v-24.5Zm-882,80.438h24.5v6.125h-24.5Zm49,0h24.5v6.125h-24.5Zm49,0h24.5v6.125h-24.5Zm49,0h24.5v6.125h-24.5ZM218,134.341h20.576V167H218Zm.981.981v30.7H237.6v-30.7Zm29.644,19.428h24.5v6.125h-24.5Zm45.938-27.562h36.846v33.688H294.563Zm3.063,6.125v24.5h30.721v-24.5Zm45.938-6.125h36.846v33.688H343.563Zm3.063,6.125v24.5h30.721v-24.5Zm49,21.438h24.5v6.125h-24.5Zm49,0h24.5v6.125h-24.5Zm49,0h24.5v6.125h-24.5Zm49,0h24.5v6.125h-24.5Zm45.938-27.562h36.846v33.688H588.563Zm3.063,6.125v24.5h30.721v-24.5Zm42.875,1.029h20.576V167H634.5Zm.981.981v30.7H654.1v-30.7Zm29.644,19.428h24.5v6.125h-24.5Zm45.938-27.562h36.846v33.688H711.063Zm3.063,6.125v24.5h30.721v-24.5Zm45.938-6.125h36.846v33.688H760.063Zm3.063,6.125v24.5h30.721v-24.5Zm49,21.438h24.5v6.125h-24.5Zm49,0h24.5v6.125h-24.5Zm45.938-27.562h36.846v33.688H907.063Zm3.063,6.125v24.5h30.721v-24.5ZM12.813,186.188H49.658v33.688H12.813Zm3.063,6.125v24.5H46.6v-24.5Zm45.938-6.125H98.658v33.688H61.813Zm3.063,6.125v24.5H95.6v-24.5Zm42.875,1.029h20.576V226H107.75Zm.981.981v30.7h18.614v-30.7Zm29.644,19.428h24.5v6.125h-24.5Zm45.938-27.562h36.846v33.688H184.313Zm3.063,6.125v24.5H218.1v-24.5Zm45.938-6.125h36.846v33.688H233.313Zm3.063,6.125v24.5H267.1v-24.5Zm49,21.438h24.5v6.125h-24.5Zm49,0h24.5v6.125h-24.5Zm45.938-27.562h36.846v33.688H380.313Zm3.063,6.125v24.5H414.1v-24.5Zm49,21.438h24.5v6.125h-24.5Zm45.938-27.562h36.846v33.688H478.313Zm3.063,6.125v24.5H512.1v-24.5Zm42.875,1.029h20.576V226H524.25Zm.981.981v30.7h18.614v-30.7Zm29.644,19.428h24.5v6.125h-24.5Zm49,0h24.5v6.125h-24.5Zm45.938-27.562h36.846v33.688H649.813Zm3.063,6.125v24.5H683.6v-24.5Zm49,21.438h24.5v6.125h-24.5Zm49,0h24.5v6.125h-24.5Zm49,0h24.5v6.125h-24.5Zm49,0h24.5v6.125h-24.5Zm49,0h24.5v6.125h-24.5Zm42.875-20.409h20.576V226H940.75Zm.981.981v30.7h18.614v-30.7ZM28.125,272.75h24.5v6.125h-24.5Zm45.938-27.562h36.846v33.688H74.063Zm3.063,6.125v24.5h30.721v-24.5Zm45.938-6.125h36.846v33.688H123.063Zm3.063,6.125v24.5h30.721v-24.5Zm49,21.438h24.5v6.125h-24.5Zm45.938-27.562h36.846v33.688H221.063Zm3.063,6.125v24.5h30.721v-24.5Zm45.938-6.125h36.846v33.688H270.063Zm3.063,6.125v24.5h30.721v-24.5Zm45.938-6.125h36.846v33.688H319.063Zm3.063,6.125v24.5h30.721v-24.5Zm49,21.438h24.5v6.125h-24.5ZM414,252.341h20.576V285H414Zm.981.981v30.7H433.6v-30.7Zm29.644,19.428h24.5v6.125h-24.5Zm45.938-27.562h36.846v33.688H490.563Zm3.063,6.125v24.5h30.721v-24.5Zm45.938-6.125h36.846v33.688H539.563Zm3.063,6.125v24.5h30.721v-24.5Zm49,21.438h24.5v6.125h-24.5Zm45.938-27.562h36.846v33.688H637.563Zm3.063,6.125v24.5h30.721v-24.5Zm45.938-6.125h36.846v33.688H686.563Zm3.063,6.125v24.5h30.721v-24.5Zm45.938-6.125h36.846v33.688H735.563Zm3.063,6.125v24.5h30.721v-24.5Zm45.938-6.125h36.846v33.688H784.563Zm3.063,6.125v24.5h30.721v-24.5Zm42.875,1.029h20.576V285H830.5Zm.981.981v30.7H850.1v-30.7Zm29.644,19.428h24.5v6.125h-24.5Zm45.938-27.562h36.846v33.688H907.063Zm3.063,6.125v24.5h30.721v-24.5ZM25.063,304.188H61.908v33.688H25.063Zm3.063,6.125v24.5H58.846v-24.5Zm45.938-6.125h36.846v33.688H74.063Zm3.063,6.125v24.5h30.721v-24.5Zm49,21.438h24.5v6.125h-24.5Zm45.938-27.562h36.846v33.688H172.063Zm3.063,6.125v24.5h30.721v-24.5Zm49,21.438h24.5v6.125h-24.5Zm49,0h24.5v6.125h-24.5ZM316,311.341h20.576V344H316Zm.981.981v30.7H335.6v-30.7Zm29.644,19.428h24.5v6.125h-24.5Zm49,0h24.5v6.125h-24.5Zm45.938-27.562h36.846v33.688H441.563Zm3.063,6.125v24.5h30.721v-24.5Zm49,21.438h24.5v6.125h-24.5Zm49,0h24.5v6.125h-24.5Zm49,0h24.5v6.125h-24.5Zm49,0h24.5v6.125h-24.5Zm49,0h24.5v6.125h-24.5ZM732.5,311.341h20.576V344H732.5Zm.981.981v30.7H752.1v-30.7Zm29.644,19.428h24.5v6.125h-24.5Zm45.938-27.562h36.846v33.688H809.063Zm3.063,6.125v24.5h30.721v-24.5Zm45.938-6.125h36.846v33.688H858.063Zm3.063,6.125v24.5h30.721v-24.5Zm49,21.438h24.5v6.125h-24.5Zm-882,59h24.5v6.125h-24.5Zm45.938-27.562h36.846v33.688H74.063Zm3.063,6.125v24.5h30.721v-24.5Zm45.938-6.125h36.846v33.688H123.063Zm3.063,6.125v24.5h30.721v-24.5Zm49,21.438h24.5v6.125h-24.5ZM218,370.341h20.576V403H218Zm.981.981v30.7H237.6v-30.7Zm29.644,19.428h24.5v6.125h-24.5Zm45.938-27.562h36.846v33.688H294.563Zm3.063,6.125v24.5h30.721v-24.5Zm45.938-6.125h36.846v33.688H343.563Zm3.063,6.125v24.5h30.721v-24.5Zm49,21.438h24.5v6.125h-24.5Zm45.938-27.562h36.846v33.688H441.563Zm3.063,6.125v24.5h30.721v-24.5Zm45.938-6.125h36.846v33.688H490.563Zm3.063,6.125v24.5h30.721v-24.5Zm45.938-6.125h36.846v33.688H539.563Zm3.063,6.125v24.5h30.721v-24.5Zm45.938-6.125h36.846v33.688H588.563Zm3.063,6.125v24.5h30.721v-24.5Zm42.875,1.029h20.576V403H634.5Zm.981.981v30.7H654.1v-30.7Zm29.644,19.428h24.5v6.125h-24.5Zm45.938-27.562h36.846v33.688H711.063Zm3.063,6.125v24.5h30.721v-24.5Zm45.938-6.125h36.846v33.688H760.063Zm3.063,6.125v24.5h30.721v-24.5Zm45.938-6.125h36.846v33.688H809.063Zm3.063,6.125v24.5h30.721v-24.5Zm49,21.438h24.5v6.125h-24.5Zm45.938-27.562h36.846v33.688H907.063Zm3.063,6.125v24.5h30.721v-24.5ZM15.875,449.75h24.5v6.125h-24.5Zm45.938-27.562H98.658v33.688H61.813Zm3.063,6.125v24.5H95.6v-24.5Zm42.875,1.029h20.576V462H107.75Zm.981.981v30.7h18.614v-30.7Zm29.644,19.428h24.5v6.125h-24.5Zm45.938-27.562h36.846v33.688H184.313Zm3.063,6.125v24.5H218.1v-24.5Zm45.938-6.125h36.846v33.688H233.313Zm3.063,6.125v24.5H267.1v-24.5Zm49,21.438h24.5v6.125h-24.5Zm45.938-27.562h36.846v33.688H331.313Zm3.063,6.125v24.5H365.1v-24.5Zm45.938-6.125h36.846v33.688H380.313Zm3.063,6.125v24.5H414.1v-24.5Zm45.938-6.125h36.846v33.688H429.313Zm3.063,6.125v24.5H463.1v-24.5Zm49,21.438h24.5v6.125h-24.5Zm42.875-20.409h20.576V462H524.25Zm.981.981v30.7h18.614v-30.7Zm29.644,19.428h24.5v6.125h-24.5Zm45.938-27.562h36.846v33.688H600.813Zm3.063,6.125v24.5H634.6v-24.5Zm45.938-6.125h36.846v33.688H649.813Zm3.063,6.125v24.5H683.6v-24.5Zm49,21.438h24.5v6.125h-24.5Zm49,0h24.5v6.125h-24.5Zm45.938-27.562h36.846v33.688H796.813Zm3.063,6.125v24.5H830.6v-24.5Zm49,21.438h24.5v6.125h-24.5Zm49,0h24.5v6.125h-24.5Zm42.875-20.409h20.576V462H940.75Zm.981.981v30.7h18.614v-30.7Z" transform="translate(-3.81 -3.19)"/></g></svg>