<svg xmlns="http://www.w3.org/2000/svg" xmlns:xlink="http://www.w3.org/1999/xlink" width="36.001" height="36.001" viewBox="0 0 36.001 36.001"><defs><style>.a{fill:#08cc96;}.b{filter:url(#a);}</style><filter id="a" x="0" y="0" width="36.001" height="36.001" filterUnits="userSpaceOnUse"><feOffset input="SourceAlpha"/><feGaussianBlur stdDeviation="1.5" result="b"/><feFlood flood-color="#08cc96"/><feComposite operator="in" in2="b"/><feComposite in="SourceGraphic"/></filter></defs><g class="b" transform="matrix(1, 0, 0, 1, 0, 0)"><path class="a" d="M24.108,2.25H2.893A2.893,2.893,0,0,0,0,5.143V26.358a2.893,2.893,0,0,0,2.893,2.893h8.272v-9.18h-3.8V15.751h3.8V12.458c0-3.746,2.23-5.815,5.646-5.815a23,23,0,0,1,3.346.292v3.677H18.272a2.161,2.161,0,0,0-2.436,2.334v2.806h4.145l-.663,4.321H15.836v9.18h8.272A2.893,2.893,0,0,0,27,26.358V5.143A2.893,2.893,0,0,0,24.108,2.25Z" transform="translate(4.5 2.25)"/></g></svg>