<svg xmlns="http://www.w3.org/2000/svg" xmlns:xlink="http://www.w3.org/1999/xlink" viewBox="0 0 370.41 509.32"><defs><style>.cls-1{fill:url(#linear-gradient);}.cls-2{fill:url(#linear-gradient-2);}.cls-3{fill:url(#linear-gradient-3);}.cls-4{fill:none;stroke-miterlimit:10;stroke-width:10px;stroke:url(#linear-gradient-4);}</style><linearGradient id="linear-gradient" x1="33.16" y1="254.54" x2="337.24" y2="254.54" gradientUnits="userSpaceOnUse"><stop offset="0" stop-color="#136244"/><stop offset="0.49" stop-color="#68fbaf"/><stop offset="1" stop-color="#044430"/></linearGradient><linearGradient id="linear-gradient-2" x1="33.16" y1="271.51" x2="136.26" y2="271.51" xlink:href="#linear-gradient"/><linearGradient id="linear-gradient-3" x1="233.71" y1="271.51" x2="337.24" y2="271.51" xlink:href="#linear-gradient"/><linearGradient id="linear-gradient-4" x1="0" y1="254.66" x2="370.41" y2="254.66" xlink:href="#linear-gradient"/></defs><g id="Layer_2" data-name="Layer 2"><g id="OBJECTS"><polygon class="cls-1" points="33.16 81.62 185.54 35.95 337.25 81.62 337.25 110.33 225.01 110.33 222.4 428.77 185.54 473.14 145.4 431.38 149.31 111.64 33.16 114.25 33.16 81.62"/><path class="cls-2" d="M106.25,131.22H33.16V318.49s19.58,47.64,73.09,93.32V310h30V254.43H106.9Z"/><path class="cls-3" d="M263.86,131.22h73.38V318.49s-19.65,47.64-73.38,93.32V310H233.71V254.43H263.2Z"/><path class="cls-4" d="M186.93,5.14,365.41,49V313.47S318.16,454.62,186.93,504c0,0-114.78-46.59-181.93-185V46.25Z"/><circle cx="185.2" cy="225.08" r="11.92"/><polygon points="185.15 215.95 173.04 254.54 197.26 254.54 185.15 215.95"/></g></g></svg>