<svg xmlns="http://www.w3.org/2000/svg" xmlns:xlink="http://www.w3.org/1999/xlink" width="33.001" height="33.001" viewBox="0 0 33.001 33.001"><defs><style>.a{fill:#fff;}.b{filter:url(#a);}</style><filter id="a" x="0" y="0" width="33.001" height="33.001" filterUnits="userSpaceOnUse"><feOffset input="SourceAlpha"/><feGaussianBlur stdDeviation="1" result="b"/><feFlood flood-color="#08cc96"/><feComposite operator="in" in2="b"/><feComposite in="SourceGraphic"/></filter></defs><g class="b" transform="matrix(1, 0, 0, 1, 0, 0)"><path class="a" d="M25.072,2.25H1.923A1.937,1.937,0,0,0,0,4.2V27.3a1.937,1.937,0,0,0,1.923,1.947h23.15A1.942,1.942,0,0,0,27,27.3V4.2A1.942,1.942,0,0,0,25.072,2.25ZM8.161,25.394h-4V12.508H8.167V25.394Zm-2-14.646a2.32,2.32,0,1,1,2.32-2.32,2.321,2.321,0,0,1-2.32,2.32Zm17,14.646h-4V19.126c0-1.495-.03-3.417-2.079-3.417-2.085,0-2.4,1.627-2.4,3.309v6.377h-4V12.508h3.839v1.76h.054a4.215,4.215,0,0,1,3.791-2.079c4.05,0,4.8,2.67,4.8,6.142Z" transform="translate(3 0.75)"/></g></svg>