<svg xmlns="http://www.w3.org/2000/svg" xmlns:xlink="http://www.w3.org/1999/xlink" width="35.999" height="35.999" viewBox="0 0 35.999 35.999"><defs><style>.a{fill:#08cc96;}.b{filter:url(#a);}</style><filter id="a" x="0" y="0" width="35.999" height="35.999" filterUnits="userSpaceOnUse"><feOffset input="SourceAlpha"/><feGaussianBlur stdDeviation="1.5" result="b"/><feFlood flood-color="#08cc96"/><feComposite operator="in" in2="b"/><feComposite in="SourceGraphic"/></filter></defs><g class="b" transform="matrix(1, 0, 0, 1, 0, 0)"><path class="a" d="M-8433,27h-21a3,3,0,0,1-3-3V3a3,3,0,0,1,3-3h21a3,3,0,0,1,3,3V24A3,3,0,0,1-8433,27Zm-9.844-8.77h0l4.563,3.361a1.529,1.529,0,0,0,.731.229c.458,0,.768-.338.92-1l2.994-14.123a1.446,1.446,0,0,0-.163-1.226.8.8,0,0,0-.644-.289,1.3,1.3,0,0,0-.456.089l-17.605,6.781c-.595.234-.931.538-.92.835.009.251.27.475.716.615l4.5,1.409,10.455-6.584a.932.932,0,0,1,.489-.174c.108,0,.188.036.21.1s-.019.162-.128.259l-8.456,7.641-.329,4.648a1.15,1.15,0,0,0,.91-.441l.007-.007,2.2-2.118Z" transform="translate(8461.5 4.5)"/></g></svg>