<svg xmlns="http://www.w3.org/2000/svg" xmlns:xlink="http://www.w3.org/1999/xlink" width="36.001" height="36.001" viewBox="0 0 36.001 36.001"><defs><style>.a{fill:#fff;}.b{filter:url(#a);}</style><filter id="a" x="0" y="0" width="36.001" height="36.001" filterUnits="userSpaceOnUse"><feOffset input="SourceAlpha"/><feGaussianBlur stdDeviation="1.5" result="b"/><feFlood flood-color="#08cc96"/><feComposite operator="in" in2="b"/><feComposite in="SourceGraphic"/></filter></defs><g class="b" transform="matrix(1, 0, 0, 1, 0, 0)"><path class="a" d="M24.108,2.25H2.893A2.894,2.894,0,0,0,0,5.143V26.358a2.894,2.894,0,0,0,2.893,2.893H24.108A2.894,2.894,0,0,0,27,26.358V5.143A2.894,2.894,0,0,0,24.108,2.25Zm-2.947,9.571c.012.169.012.344.012.512A11.17,11.17,0,0,1,9.926,23.58a11.2,11.2,0,0,1-6.069-1.772,8.328,8.328,0,0,0,.952.048,7.925,7.925,0,0,0,4.906-1.688,3.958,3.958,0,0,1-3.695-2.742A4.26,4.26,0,0,0,7.8,17.354a3.953,3.953,0,0,1-3.164-3.881v-.048a3.95,3.95,0,0,0,1.784.5,3.944,3.944,0,0,1-1.76-3.291A3.9,3.9,0,0,1,5.2,8.639a11.224,11.224,0,0,0,8.149,4.135,3.961,3.961,0,0,1,6.744-3.61A7.746,7.746,0,0,0,22.6,8.211a3.943,3.943,0,0,1-1.736,2.176,7.866,7.866,0,0,0,2.278-.615A8.32,8.32,0,0,1,21.161,11.821Z" transform="translate(4.5 2.25)"/></g></svg>