<svg xmlns="http://www.w3.org/2000/svg" width="28.532" height="42.554" viewBox="0 0 28.532 42.554"><defs><style>.a{fill:#585858;}.b{fill:#fff;}</style></defs><g transform="translate(-144.944 -123.446)"><g transform="translate(144.944 123.446)"><path class="a" d="M7832.944-5994.486v26.054a43.326,43.326,0,0,0,6.325,6.947,42.337,42.337,0,0,0,7.816,5.087,41.164,41.164,0,0,0,8.188-5.087,36.755,36.755,0,0,0,6.2-6.947v-26.054l-14.392-4.466Z" transform="translate(-7832.944 5998.952)"/><path class="b" d="M7845.362-5988.006h-10.671v-3.722l13.275-3.97,12.778,3.97v3.722h-10.3v29.528l-2.48,2.481-2.6-1.736Z" transform="translate(-7833.825 5997.311)"/><path class="b" d="M7834.691-5978.172h6.824v15.757h2.6v3.722h-2.6v6.824a21,21,0,0,1-3.971-2.979,18.723,18.723,0,0,1-2.854-3.845Z" transform="translate(-7833.33 5988.469)"/><path class="b" d="M7844.12-5978.172H7837.3v15.757h-2.605v3.722h2.605v6.824a21,21,0,0,0,3.971-2.979,18.655,18.655,0,0,0,2.853-3.845Z" transform="translate(-7816.978 5988.469)"/></g><g transform="translate(158.193 149.648)"><circle class="a" cx="0.5" cy="0.5" r="0.5" transform="translate(0.379 0.352)"/><path class="a" d="M7784.616-5952.559l-.353,1.375h1.233l-.352-1.375Z" transform="translate(-7784.107 5953.933)"/></g></g></svg>